HIERARCHY
ROOT Hips
{
	OFFSET 0.000000 0.000000 0.000000
	CHANNELS 6 Xposition Yposition Zposition Xrotation Yrotation Zrotation
	JOINT Spine
	{
		OFFSET 0.000000 10.431076 -0.183291
		CHANNELS 3 Xrotation Yrotation Zrotation
		JOINT Spine1
		{
			OFFSET 0.000000 12.169579 -0.213840
			CHANNELS 3 Xrotation Yrotation Zrotation
			JOINT Spine2
			{
				OFFSET 0.000000 13.908089 -0.244389
				CHANNELS 3 Xrotation Yrotation Zrotation
				JOINT Neck
				{
					OFFSET 0.000000 15.646614 -0.274937
					CHANNELS 3 Xrotation Yrotation Zrotation
					JOINT Head
					{
						OFFSET 0.000000 9.992981 1.511905
						CHANNELS 3 Xrotation Yrotation Zrotation
						End Site
						{
							OFFSET 0.000000 23.944481 0.000000
						}
					}
				}
				JOINT LeftShoulder
				{
					OFFSET 5.623900 13.422947 -0.295229
					CHANNELS 3 Xrotation Yrotation Zrotation
					JOINT LeftArm
					{
						OFFSET 11.299500 -4.486679 -0.040584
						CHANNELS 3 Xrotation Yrotation Zrotation
						JOINT LeftForeArm
						{
							OFFSET 18.812038 -19.995176 1.759347
							CHANNELS 3 Xrotation Yrotation Zrotation
							JOINT LeftHand
							{
								OFFSET 14.068768 -14.666154 17.701773
								CHANNELS 3 Xrotation Yrotation Zrotation
								JOINT LeftHandIndex1
								{
									OFFSET 4.900085 -8.554094 9.848974
									CHANNELS 3 Xrotation Yrotation Zrotation
									JOINT LeftHandIndex2
									{
										OFFSET 0.116100 -0.767465 0.848562
										CHANNELS 3 Xrotation Yrotation Zrotation
										JOINT LeftHandIndex3
										{
											OFFSET 0.283611 -1.365776 1.144894
											CHANNELS 3 Xrotation Yrotation Zrotation
											End Site
											{
												OFFSET 0.163895 -1.083391 1.197872
											}
										}
									}
								}
							}
						}
					}
				}
				JOINT RightShoulder
				{
					OFFSET -5.623900 13.422947 -0.254645
					CHANNELS 3 Xrotation Yrotation Zrotation
					JOINT RightArm
					{
						OFFSET -11.299497 -4.486683 0.040584
						CHANNELS 3 Xrotation Yrotation Zrotation
						JOINT RightForeArm
						{
							OFFSET -18.812038 -19.995190 1.637604
							CHANNELS 3 Xrotation Yrotation Zrotation
							JOINT RightHand
							{
								OFFSET -14.068760 -14.666158 17.713804
								CHANNELS 3 Xrotation Yrotation Zrotation
								JOINT RightHandIndex1
								{
									OFFSET -5.135284 -8.648746 9.496262
									CHANNELS 3 Xrotation Yrotation Zrotation
									JOINT RightHandIndex2
									{
										OFFSET 0.086082 -0.592590 1.038300
										CHANNELS 3 Xrotation Yrotation Zrotation
										JOINT RightHandIndex3
										{
											OFFSET -0.240086 -1.427147 1.157845
											CHANNELS 3 Xrotation Yrotation Zrotation
											End Site
											{
												OFFSET 0.114975 -0.791478 1.386780
											}
										}
									}
								}
							}
						}
					}
				}
			}
		}
	}
	JOINT LeftUpLeg
	{
		OFFSET 10.464871 -5.799515 0.414702
		CHANNELS 3 Xrotation Yrotation Zrotation
		JOINT LeftLeg
		{
			OFFSET 5.458568 -47.016251 -0.902471
			CHANNELS 3 Xrotation Yrotation Zrotation
			JOINT LeftFoot
			{
				OFFSET 3.872663 -40.996902 -0.210208
				CHANNELS 3 Xrotation Yrotation Zrotation
				JOINT LeftToeBase
				{
					OFFSET -1.923424 -8.338470 13.147891
					CHANNELS 3 Xrotation Yrotation Zrotation
					End Site
					{
						OFFSET -0.915655 -0.157990 6.151315
					}
				}
			}
		}
	}
	JOINT RightUpLeg
	{
		OFFSET -10.464871 -5.799515 0.587245
		CHANNELS 3 Xrotation Yrotation Zrotation
		JOINT RightLeg
		{
			OFFSET -5.458575 -47.016251 -1.014727
			CHANNELS 3 Xrotation Yrotation Zrotation
			JOINT RightFoot
			{
				OFFSET -3.872656 -40.996872 0.047854
				CHANNELS 3 Xrotation Yrotation Zrotation
				JOINT RightToeBase
				{
					OFFSET 1.923487 -8.337814 12.513378
					CHANNELS 3 Xrotation Yrotation Zrotation
					End Site
					{
						OFFSET 0.915691 -0.157654 6.051507
					}
				}
			}
		}
	}
}
MOTION
Frames: 12
Frame Time: 0.041667
-7.347857 3.811589 -3.510086 0.580452 1.992116 2.243229 -2.905560 0.143838 0.141627 -0.782331 0.114973 0.328940 1.479327 -0.497383 -0.139442 0.766449 -2.697170 -0.295247 -0.000000 -0.000000 -0.000000 -9.674675 -3.586627 13.858660 -35.506906 34.121959 47.059539 9.809876 16.166423 -2.335160 -18.357561 16.362290 16.825549 -0.000067 -0.000067 -0.000011 0.000031 0.000020 -0.000002 -0.000036 -0.000040 0.000004 -5.351114 -0.111129 -10.553152 -5.441785 -32.500171 -27.696011 15.855618 -20.342591 7.575762 -49.872255 -37.720877 20.433231 0.000015 -0.000020 0.000009 -0.000037 0.000036 -0.000017 -0.000025 0.000014 0.000024 0.768406 20.081779 3.847018 2.907846 0.126081 -0.018587 31.622912 1.374834 -0.857541 -0.005620 0.007151 0.009283 1.430271 -19.448402 0.361605 2.943209 0.088260 0.219740 23.694543 1.907322 1.206109 -0.046343 -0.004795 -0.011594 
-7.438841 3.507527 -3.581528 -0.621791 1.669530 2.320479 -3.444754 -0.044586 0.142550 -0.851545 0.008571 0.160941 1.102147 -0.388355 -0.080008 3.414276 -2.815688 0.182925 0.000000 -0.000000 -0.000000 -9.736237 -2.856715 13.708570 -35.015515 34.312586 45.882520 7.080903 13.346820 -1.644174 -19.548071 16.155100 16.586220 -0.000058 -0.000073 -0.000010 0.000031 0.000029 -0.000009 -0.000039 -0.000040 0.000006 -5.434904 -0.958587 -10.372957 -6.579944 -32.621557 -28.201593 14.243135 -19.244890 6.911676 -51.391419 -38.898993 17.771478 0.000020 -0.000021 -0.000000 -0.000034 0.000037 -0.000019 -0.000028 0.000015 0.000020 1.999722 20.442758 3.957828 3.166881 0.107695 0.057337 31.683055 1.643848 -0.879534 0.027668 0.000753 -0.002270 2.572899 -19.622287 0.410344 3.179079 0.082653 0.223115 23.878157 1.712099 1.139288 0.002881 0.000647 0.001314 
-7.445566 3.322281 -3.682831 -1.626782 1.362239 2.379140 -3.247235 -0.101032 0.115896 -1.102637 -0.049301 0.082008 0.823751 -0.314213 -0.029085 4.428196 -2.866902 0.405722 0.000000 0.000000 -0.000000 -9.855133 -1.372629 13.193987 -34.329931 34.330928 44.398381 4.278550 10.403731 -1.190718 -19.936911 17.418314 17.149241 -0.000066 -0.000080 -0.000003 0.000032 0.000029 -0.000006 -0.000033 -0.000041 0.000007 -5.536682 -2.290915 -10.088090 -7.782561 -32.648045 -28.442484 11.724008 -17.412611 5.988110 -56.213376 -40.813792 10.106204 0.000022 -0.000026 0.000004 -0.000029 0.000035 -0.000023 -0.000032 0.000016 0.000023 2.877655 20.589394 3.994102 3.163792 0.154476 0.060589 31.849176 1.740452 -0.934440 -0.186271 -0.009988 0.008549 3.319364 -19.551531 0.423075 3.271710 0.076709 0.209922 24.090279 1.648204 1.094989 -0.250665 0.012835 -0.011667 
-7.446583 3.277105 -3.708298 -2.018077 1.241053 2.400496 -3.933584 -0.189382 0.091878 -1.000830 -0.080607 0.028127 0.737635 -0.273971 -0.015970 4.646626 -2.907575 0.565283 0.000000 -0.000000 -0.000000 -9.899998 -0.764280 12.981494 -33.565657 34.959039 42.950357 2.397795 8.160819 -0.914871 -20.156018 18.050421 17.334675 -0.000064 -0.000085 0.000001 0.000027 0.000024 -0.000006 -0.000033 -0.000039 0.000006 -5.575589 -2.831348 -9.973310 -8.110026 -33.155982 -28.109005 10.094915 -16.274375 5.337955 -60.084983 -41.563231 4.412554 0.000022 -0.000021 0.000007 -0.000034 0.000039 -0.000024 -0.000025 0.000014 0.000024 2.947877 20.631811 4.052661 3.155484 0.120094 0.068317 32.107012 1.754575 -0.962285 -0.073538 -0.003394 0.004601 3.384818 -19.591563 0.488377 3.262988 0.066579 0.195365 24.462895 1.648531 1.004282 -0.072302 0.003661 -0.004096 
-7.498526 2.157206 -3.654572 -2.962503 0.847605 2.455055 -3.928461 -0.190909 -0.015548 -1.347984 -0.078606 -0.081027 0.502723 -0.231059 -0.003466 6.331705 -3.290625 1.220022 0.000000 -0.000000 -0.000000 -10.073430 1.834787 12.360815 -34.018874 34.802553 42.230510 -2.679161 2.806087 -0.465472 -21.490483 20.204325 19.860035 -0.000063 -0.000080 -0.000003 0.000030 0.000029 -0.000006 -0.000033 -0.000037 0.000003 -5.710778 -5.056456 -9.733124 -10.982666 -33.517118 -28.296987 3.996250 -11.779955 3.374668 -79.031224 -38.654219 -18.994693 0.000024 -0.000023 -0.000001 -0.000025 0.000034 -0.000030 -0.000024 0.000015 0.000025 3.572970 20.585464 4.185113 3.476002 0.137735 0.028114 32.479523 1.607777 -1.058872 -0.109726 -0.008497 0.003182 4.051112 -19.359423 0.479211 3.814929 0.082494 0.181809 24.925672 1.765036 0.855047 -0.014777 0.004134 0.002953 
-7.593180 1.229074 -3.483338 -3.530026 0.477820 2.474649 -4.054517 -0.164366 -0.162939 -1.653042 -0.077891 -0.117329 0.438527 -0.203741 0.051988 7.950712 -3.406455 1.737646 0.000000 -0.000000 -0.000001 -10.217312 4.333193 11.783982 -34.431878 34.590615 41.644247 -6.462995 -1.107196 -0.627869 -22.328063 21.529099 21.685900 -0.000064 -0.000077 -0.000009 0.000029 0.000022 -0.000001 -0.000032 -0.000045 0.000010 -5.805918 -7.203293 -9.465142 -14.220688 -33.936246 -28.662462 -1.389565 -7.439108 2.542198 -89.265347 -34.022996 -31.750643 0.000020 -0.000028 0.000005 -0.000029 0.000037 -0.000018 -0.000029 0.000013 0.000021 3.935637 20.613420 4.388975 3.826800 0.182070 -0.071539 32.653427 1.505739 -1.085066 -0.179433 -0.017079 0.000817 4.483475 -19.091873 0.517759 4.262277 0.083647 0.162320 25.073969 1.916324 0.722820 -0.125616 0.014137 0.002932 
-7.616926 1.002648 -3.439941 -3.736861 0.335110 2.480259 -4.605114 -0.214570 -0.130542 -1.477792 -0.095178 -0.224073 0.438649 -0.138654 0.014432 9.390969 -3.502617 2.230440 0.000000 0.000000 -0.000000 -10.266561 5.299531 11.562856 -34.578283 35.812523 40.613374 -9.063454 -3.779985 -0.242744 -23.028963 22.109865 22.919791 -0.000059 -0.000074 -0.000004 0.000032 0.000028 -0.000006 -0.000034 -0.000040 0.000007 -5.839096 -8.033814 -9.360927 -15.968475 -34.840877 -28.007560 -4.678298 -4.698550 1.759219 -94.142731 -29.842391 -37.486721 0.000022 -0.000024 0.000007 -0.000030 0.000041 -0.000019 -0.000025 0.000011 0.000025 3.795395 20.697276 4.407402 4.114263 0.081205 0.068870 33.265654 1.458945 -1.157075 0.024738 0.000812 -0.001356 4.463438 -19.016213 0.504380 4.502904 0.116881 0.182243 25.873735 1.986556 0.708707 0.064077 -0.002296 0.004259 
-7.751841 0.318088 -3.913116 -4.418673 -0.196891 2.423437 -4.298002 -0.291521 -0.219466 -1.888173 -0.185896 -0.229379 0.325531 -0.171147 0.048586 10.380430 -2.772964 2.695240 -0.000000 -0.000000 -0.000000 -10.376846 7.908294 10.858299 -35.566943 35.856734 39.881338 -13.271465 -7.978334 -0.802236 -23.111910 22.905039 23.688201 -0.000064 -0.000078 -0.000005 0.000032 0.000026 -0.000004 -0.000029 -0.000036 0.000008 -5.760491 -9.640293 -8.565143 -20.131219 -35.888385 -27.178667 -14.678486 4.179676 2.274703 -102.519958 -22.927779 -48.528579 0.000017 -0.000021 0.000004 -0.000022 0.000035 -0.000023 -0.000020 0.000014 0.000022 3.918849 20.863877 4.795668 4.856412 0.097375 0.043711 33.540160 1.449487 -1.164626 0.003108 -0.004151 -0.004521 4.656975 -18.748369 0.560256 5.276591 0.147901 0.115493 26.000681 2.175325 0.514856 0.099410 -0.000490 0.010522 
-7.765845 0.168663 -4.212616 -4.799428 -0.333938 2.396561 -4.322392 -0.320557 -0.193600 -1.907268 -0.201730 -0.284646 0.295641 -0.106955 0.018318 10.603759 -2.569687 2.993976 0.000000 0.000000 0.000000 -10.381629 8.671798 10.375577 -35.672804 36.508259 38.999448 -16.117827 -10.654515 -1.065536 -24.228576 23.722220 25.588100 -0.000062 -0.000076 -0.000005 0.000029 0.000028 -0.000003 -0.000044 -0.000045 0.000005 -5.601364 -10.100784 -8.100138 -21.087497 -36.546068 -25.758976 -20.168913 9.082717 3.114668 -103.473439 -19.060497 -51.197988 0.000015 -0.000032 0.000002 -0.000028 0.000036 -0.000029 -0.000029 0.000015 0.000021 3.938532 20.932175 4.965891 5.320831 0.047817 0.112828 33.729817 1.466007 -1.194436 0.068432 0.006902 0.002001 4.781759 -18.672737 0.514238 5.741637 0.170790 0.135513 26.113382 2.258627 0.515478 0.136706 -0.008507 0.003835 
-7.769093 -0.229430 -5.439835 -6.327782 -0.559686 2.300124 -4.052627 0.000155 -0.168513 -1.081433 0.018355 -0.257920 0.479665 -0.122762 0.009096 12.060441 -1.719729 3.482036 -0.000000 -0.000000 -0.000000 -10.270607 10.343793 8.248039 -34.791836 38.866744 32.768860 -31.671696 -23.694268 -5.394581 -33.782717 26.135225 40.741682 -0.000071 -0.000079 0.000001 0.000033 0.000025 -0.000006 -0.000034 -0.000036 0.000004 -4.727200 -11.066797 -6.189294 -19.610124 -38.813991 -15.232893 -42.615408 26.162068 12.821626 -97.859870 -14.720393 -52.699154 0.000010 -0.000032 0.000007 -0.000032 0.000038 -0.000023 -0.000020 0.000011 0.000027 4.590246 21.185775 5.558577 6.890120 0.086602 0.060454 34.007867 1.607921 -1.203590 0.222677 0.009795 -0.013940 5.265205 -18.404187 0.298666 7.727597 0.169304 0.199930 25.973620 2.488210 0.440874 0.241102 -0.010623 0.015290 
-7.776409 -0.815130 -6.409195 -7.662278 -1.004870 2.284903 -2.718806 -0.083175 -0.213289 -1.203193 -0.092137 -0.305790 0.380690 0.076843 0.121373 13.826848 -1.042656 3.208261 0.000000 -0.000000 -0.000000 -10.051237 11.266623 5.735802 -34.932955 40.185736 27.812527 -45.627477 -31.540683 -11.556511 -42.599238 25.323734 55.616929 -0.000059 -0.000073 -0.000003 0.000029 0.000027 -0.000006 -0.000031 -0.000038 -0.000000 -3.651784 -11.544428 -3.612497 -23.257974 -40.038446 -11.498142 -53.780063 34.152517 18.777148 -84.221430 -10.673680 -51.581981 0.000022 -0.000022 0.000001 -0.000026 0.000038 -0.000019 -0.000023 0.000016 0.000021 5.044327 21.476258 5.959903 8.495633 0.091173 0.090421 33.909430 1.749802 -1.220424 0.112130 -0.000466 -0.011792 5.312592 -18.249733 -0.030517 9.766488 0.173069 0.120147 25.477015 2.576544 0.392493 0.053285 0.002769 0.009039 
-7.782840 -1.034771 -6.660279 -8.292832 -1.225491 2.276382 -3.580773 -0.231869 -0.212804 -0.267000 -0.193778 -0.373509 0.554523 0.056311 0.064021 15.222859 -0.394825 3.031511 -0.000000 0.000000 -0.000000 -9.864495 11.637418 4.381967 -33.753805 41.866389 22.821783 -57.455729 -37.658449 -17.777516 -47.093574 22.299046 66.753221 -0.000066 -0.000081 -0.000004 0.000034 0.000029 -0.000005 -0.000039 -0.000038 0.000003 -3.088169 -11.690423 -2.305914 -23.750627 -41.500533 -8.707403 -62.975724 38.465470 23.943233 -74.584921 -5.128351 -51.740643 0.000022 -0.000019 0.000001 -0.000026 0.000037 -0.000022 -0.000023 0.000012 0.000023 5.531869 21.517357 6.199183 9.081634 0.152823 -0.014038 34.093115 1.866974 -1.375180 0.082603 0.008312 -0.001035 5.470365 -18.162048 -0.283422 10.613462 0.169496 0.242425 25.484112 2.575887 0.462364 -0.057343 -0.001428 -0.006117 
